<?xml version="1.0" encoding="utf-8"?>
<!-- Generator: Adobe Illustrator 15.1.0, SVG Export Plug-In  -->
<!DOCTYPE svg PUBLIC "-//W3C//DTD SVG 1.1//EN" "http://www.w3.org/Graphics/SVG/1.1/DTD/svg11.dtd" [
	<!ENTITY ns_flows "http://ns.adobe.com/Flows/1.0/">
]>
<svg version="1.1"
	 xmlns="http://www.w3.org/2000/svg" xmlns:xlink="http://www.w3.org/1999/xlink" xmlns:a="http://ns.adobe.com/AdobeSVGViewerExtensions/3.0/"
	 x="0px" y="0px" width="720px" height="720px" viewBox="-9.563 -56.512 720 720"
	 overflow="visible" enable-background="new -9.563 -56.512 720 720" xml:space="preserve">
<defs>
</defs>
<polygon fill="#E4BD2A" stroke="#000000" stroke-width="35" stroke-miterlimit="10" points="185.322,589.476 20.207,303.487 
	185.322,17.5 515.552,17.5 680.667,303.487 515.552,589.476 "/>
<polyline fill="none" stroke="#000000" stroke-width="35" stroke-linecap="square" stroke-linejoin="round" stroke-miterlimit="10" points="
	60.075,356.311 214.701,356.311 215.283,356.558 216.445,357.833 217.608,359.759 219.353,363.536 221.677,369.845 224.584,379.2 
	228.653,393.952 235.047,417.41 237.373,424.617 239.117,428.719 240.279,430.09 243.185,432.479 246.673,434.727 250.743,436.863 
	255.975,439.104 262.369,441.322 269.345,443.281 277.482,445.127 286.784,446.801 297.248,448.262 309.455,449.52 322.824,450.459 
	337.357,451.035 352.47,451.195 367.003,450.936 381.537,450.254 394.906,449.205 407.113,447.816 417.578,446.219 426.878,444.385 
	435.017,442.352 441.992,440.172 447.806,437.916 452.457,435.693 456.525,433.283 459.431,431.127 461.175,429.51 461.757,428.719 
	462.919,426.158 464.664,421.186 467.57,411.312 478.615,371.603 480.939,364.993 482.683,360.91 484.427,357.833 485.591,356.558 
	486.171,356.311 640.798,356.311 "/>
</svg>
